<svg xmlns="http://www.w3.org/2000/svg" viewBox="0 0 643.32 221.91"><defs><style>.cls-1{fill:#fff;}</style></defs><g id="Layer_2" data-name="Layer 2"><g id="Layer_1-2" data-name="Layer 1"><path class="cls-1" d="M67.4,199.82h2.35l7.14,16.65,7.26-16.65h2.34l-9.37,21.55h-.47Z"/><path class="cls-1" d="M98.91,199.82l10,21.55h-2.32l-3.39-7.09H94l-3.36,7.09h-2.4l10.18-21.55Zm-.27,4.58L95,212.2h7.37Z"/><path class="cls-1" d="M112.3,199.82h2.16v19.47h8.29v2.08H112.3Z"/><path class="cls-1" d="M124.49,212.38h8.06v1.78h-8.06Z"/><path class="cls-1" d="M143.18,199.82h2.15v14.55a14.15,14.15,0,0,1-.52,4.66,4.33,4.33,0,0,1-1.73,2.1,5.34,5.34,0,0,1-3,.78,7.07,7.07,0,0,1-2.57-.5,11,11,0,0,1-2.8-1.78l1.14-1.72a17.11,17.11,0,0,0,2.8,1.67,3.48,3.48,0,0,0,1.44.32,2.75,2.75,0,0,0,1.68-.55,2.89,2.89,0,0,0,1.06-1.48,13.82,13.82,0,0,0,.3-3.58Z"/><path class="cls-1" d="M159.38,199.82l10.05,21.55h-2.32l-3.39-7.09h-9.29l-3.35,7.09h-2.41l10.18-21.55Zm-.27,4.58-3.69,7.8h7.36Z"/><path class="cls-1" d="M172.77,199.82h2.15v19.47h8.3v2.08H172.77Z"/><path class="cls-1" d="M186.69,199.82h4.25a10,10,0,0,1,3.94.61,4.81,4.81,0,0,1,2.17,1.87,5.13,5.13,0,0,1,.8,2.79,5,5,0,0,1-.7,2.62,5.16,5.16,0,0,1-2.06,1.91,8.09,8.09,0,0,1,2.59,1.34,5.4,5.4,0,0,1,1.41,1.86,5.69,5.69,0,0,1,.5,2.37,5.79,5.79,0,0,1-1.89,4.38,7.12,7.12,0,0,1-5.1,1.8h-5.91Zm2.11,2.11v6.9H190a9.53,9.53,0,0,0,3.3-.42,3.61,3.61,0,0,0,1.68-1.32,3.45,3.45,0,0,0,.61-2,2.83,2.83,0,0,0-1-2.32,5.23,5.23,0,0,0-3.3-.84Zm0,9.07v8.26h2.67a9.52,9.52,0,0,0,3.46-.46,4,4,0,0,0,1.77-1.44,3.78,3.78,0,0,0,.67-2.13,3.68,3.68,0,0,0-.94-2.5,4.86,4.86,0,0,0-2.58-1.47A19.53,19.53,0,0,0,190,211Z"/><path class="cls-1" d="M203.87,199.82h12.35v2.11H206v6.75h10.11v2.11H206v8.47h10.11v2.11H203.87Z"/><path class="cls-1" d="M220.06,199.82h4.29a26.59,26.59,0,0,1,4.86.29,5.61,5.61,0,0,1,3.12,1.89,5.38,5.38,0,0,1,1.2,3.56,5.75,5.75,0,0,1-.82,3.09,5.28,5.28,0,0,1-2.37,2,11,11,0,0,1-4.25.69l7.75,10h-2.66l-7.75-10h-1.22v10h-2.15Zm2.15,2.11v7.32l3.71,0a9.06,9.06,0,0,0,3.19-.41,3.33,3.33,0,0,0,1.62-1.31,3.69,3.69,0,0,0,.58-2,3.51,3.51,0,0,0-.59-2,3.34,3.34,0,0,0-1.54-1.27,9.48,9.48,0,0,0-3.17-.38Z"/><path class="cls-1" d="M236,201.93v-2.11h11.8v2.11H243v19.44h-2.2V201.93Z"/><path class="cls-1" d="M166.43,53.87Q155.44,43,139.12,43a37,37,0,0,0-32.37,18.85,38.17,38.17,0,0,0-2,4.12,36.6,36.6,0,0,0-8.22-12.08Q85.53,43,69.21,43a36.73,36.73,0,0,0-18.72,5A37.11,37.11,0,0,0,44,52.79L58.11,27.6H6.22v6.93H47.27L0,118.42H135.6v-.19c1.34.12,2.71.19,4.11.19a37.47,37.47,0,0,0,37.72-37.74A36.27,36.27,0,0,0,166.43,53.87Zm-112,.25A29.6,29.6,0,0,1,69.53,50a30.34,30.34,0,0,1,15.35,4.16A29.78,29.78,0,0,1,96.11,65.19a30.45,30.45,0,0,1,4,15.46,31.23,31.23,0,0,1-4,15.64A29,29,0,0,1,85,107.38a30.49,30.49,0,0,1-13.88,4H67.76A30.21,30.21,0,0,1,39.25,81a31.14,31.14,0,0,1,4-15.68A29.94,29.94,0,0,1,54.41,54.12Zm-43.3,57.27L32.64,73a39.86,39.86,0,0,0-.81,8,35.94,35.94,0,0,0,11,26.46,39.6,39.6,0,0,0,4.57,3.91Zm80.84,0a39.34,39.34,0,0,0,4.59-4,37.26,37.26,0,0,0,8.06-11.8,36.88,36.88,0,0,0,8.14,11.84,39.52,39.52,0,0,0,4.56,3.91ZM166,96.29a29.06,29.06,0,0,1-11.1,11.09,30.7,30.7,0,0,1-15.48,4.06A30.2,30.2,0,0,1,109.17,81a31,31,0,0,1,4-15.68,29.86,29.86,0,0,1,11.15-11.19A29.57,29.57,0,0,1,139.44,50a30.41,30.41,0,0,1,15.36,4.16A29.82,29.82,0,0,1,166,65.19a30.36,30.36,0,0,1,4,15.46A31.13,31.13,0,0,1,166,96.29Z"/><path class="cls-1" d="M67.16,123.54h36v7H74.34v22.51H99.15v7H74.34v35.26H67.16Z"/><path class="cls-1" d="M139.21,121.74q16.32,0,27.31,10.88a38.16,38.16,0,0,1,0,53.57,36.39,36.39,0,0,1-26.75,11,36.78,36.78,0,0,1-27-10.94,36,36,0,0,1-11-26.47,38.28,38.28,0,0,1,5-19.19,37,37,0,0,1,32.37-18.84Zm.32,7a29.59,29.59,0,0,0-15.12,4.15,29.94,29.94,0,0,0-11.15,11.19,31.15,31.15,0,0,0-4,15.69,30.22,30.22,0,0,0,30.28,30.44A30.73,30.73,0,0,0,155,186.14a29.08,29.08,0,0,0,11.11-11.09,31.28,31.28,0,0,0,4-15.64,30.49,30.49,0,0,0-4-15.47,29.78,29.78,0,0,0-11.23-11.07A30.33,30.33,0,0,0,139.53,128.72Z"/><path class="cls-1" d="M180,123.54h14.31q12,0,16.21,1a18.49,18.49,0,0,1,10.4,6.28,17.94,17.94,0,0,1,4,11.86A19.19,19.19,0,0,1,222.12,153a17.27,17.27,0,0,1-7.89,6.72Q209.1,162,200.07,162l25.83,33.35H217L191.19,162h-4.06v33.35H180Zm7.18,7V155l12.38.1q7.19,0,10.63-1.37a11.08,11.08,0,0,0,5.38-4.37,12.13,12.13,0,0,0,1.93-6.72,11.66,11.66,0,0,0-1.95-6.56,11,11,0,0,0-5.14-4.23c-2.12-.84-5.64-1.27-10.56-1.27Z"/><path class="cls-1" d="M229.31,123.54h41.16v7h-34v22.51h33.7v7h-33.7v28.23h33.7v7H229.31Z"/><path class="cls-1" d="M268.45,182l6.1-3.66q6.45,11.86,14.89,11.86a14.29,14.29,0,0,0,6.79-1.68,11.9,11.9,0,0,0,4.84-4.52,11.76,11.76,0,0,0,1.66-6,12.17,12.17,0,0,0-2.45-7.08q-3.36-4.78-12.3-11.53t-11.18-9.81a18,18,0,0,1-3.81-11,16.64,16.64,0,0,1,2.25-8.54,16,16,0,0,1,6.32-6.08,18.23,18.23,0,0,1,8.86-2.22,18.86,18.86,0,0,1,9.5,2.51q4.41,2.52,9.35,9.25L303.41,138q-4.05-5.37-6.91-7.08a11.89,11.89,0,0,0-6.23-1.71,9.89,9.89,0,0,0-7.1,2.63,8.65,8.65,0,0,0-2.76,6.5,11.11,11.11,0,0,0,1,4.54,16.79,16.79,0,0,0,3.56,4.78q1.43,1.38,9.28,7.18,9.33,6.89,12.79,12.26a19.77,19.77,0,0,1,3.47,10.79,18.32,18.32,0,0,1-5.93,13.57,19.93,19.93,0,0,1-14.43,5.77,21.25,21.25,0,0,1-11.87-3.49Q272.93,190.2,268.45,182Z"/><path class="cls-1" d="M309.55,130.57v-7H348.9v7h-16v64.8h-7.33v-64.8Z"/><path class="cls-1" d="M352.23,123.54h7.18v71.83h-7.18Z"/><path class="cls-1" d="M364.91,123.54h41.16v7h-34v22.51h33.69v7H372.09v28.23h33.69v7H364.91Z"/><path class="cls-1" d="M410.86,123.54h14.31q12,0,16.21,1a18.49,18.49,0,0,1,10.4,6.28,17.94,17.94,0,0,1,4,11.86A19.19,19.19,0,0,1,453,153a17.27,17.27,0,0,1-7.89,6.72Q440,162,431,162l25.83,33.35h-8.88L422.1,162H418v33.35h-7.18Zm7.18,7V155l12.38.1q7.18,0,10.63-1.37a11,11,0,0,0,5.38-4.37,12.13,12.13,0,0,0,1.93-6.72,11.66,11.66,0,0,0-1.95-6.56,11,11,0,0,0-5.14-4.23c-2.12-.84-5.64-1.27-10.56-1.27Z"/><path class="cls-1" d="M364.65,61.62c-7,10.25-13.34,31.39-27.28,27.85-.8-8.12,6.2-20.37-3.08-24.84-5.63-4.48-4.2-12.78-6.53-19.13-6.58-6-32.34-8.79-9.36-11.94,14-.17,23.92-9.62,35-17.07C365.9,9.38,380.3,6.85,393.44,1.1c17.75-4.82,36.89,7.47,55.11,12.73a37.09,37.09,0,0,1,12.92,6.56c16.31,13,30,31.87,52.43,23.8,44.9-4.65,90.08,6.68,129.42,28.07-18.44,15.21-47.77,19.47-73,19.09C525.73,97.62,530,95.7,500.06,64c2.54,13.85,7.74,25.38-4.05,36.78-32.38,41.44,5.95,26.88-20.57,70.95-3.67,7.81-7.18,16.46-11,23.76-11.59-14.46-2-29.27,4.36-44.23,8.78-13-21.75-29.75-20.45-60.47-.73-19.58-28.51-17.52-42.1-26.68-5.77,11.53-21.87.48-25.29,9-2.88,12.07,13.53,10.9,17.12,16.9-8.77,10.42-18.78.4-29-2.43C366.16,79.65,367.08,69.88,364.65,61.62Z"/></g></g></svg>